<?xml version="1.0" encoding="iso-8859-1"?>
<!-- Uploaded to: SVG Repo, www.svgrepo.com, Generator: SVG Repo Mixer Tools -->
<!DOCTYPE svg PUBLIC "-//W3C//DTD SVG 1.1//EN" "http://www.w3.org/Graphics/SVG/1.1/DTD/svg11.dtd">
<svg fill="#000000" version="1.1" id="Capa_1" xmlns="http://www.w3.org/2000/svg" xmlns:xlink="http://www.w3.org/1999/xlink" 
	 width="800px" height="800px" viewBox="0 0 52.333 52.333"
	 xml:space="preserve">
<g>
	<g>
		<path d="M46.706,21.73c1.34-0.045,2.419-1.142,2.419-2.492v-5.035c0-1.379-1.122-2.5-2.5-2.5H5.375c-1.378,0-2.5,1.121-2.5,2.5
			v5.035c0,1.379,1.122,2.5,2.5,2.5h0.246l-5.357,7.783c-0.322,0.468-0.352,1.078-0.078,1.574l4.833,8.76
			c0.264,0.478,0.768,0.774,1.314,0.774c0.007,0,0.015,0,0.022,0c0.554-0.009,1.059-0.321,1.312-0.815l1.054-2.053l0.057,0.533
			c0.14,1.311,1.281,2.335,2.597,2.335h29.25c1.316,0,2.457-1.024,2.598-2.336l0.112-1.071l1.33,2.592
			c0.253,0.494,0.758,0.808,1.312,0.815c0.007,0,0.015,0,0.022,0c0.546,0,1.049-0.297,1.313-0.774l4.833-8.76
			c0.273-0.496,0.244-1.106-0.078-1.574L46.706,21.73z M41.411,26.903l-2.649-5.165h3.196L41.411,26.903z M5.875,14.703h40.25v4.035
			h-3.5h-5.403l-1.388-2.702c-0.378-0.738-1.282-1.027-2.02-0.65c-0.737,0.379-1.028,1.283-0.649,2.02l0.685,1.333H18.483
			l0.684-1.333c0.378-0.736,0.087-1.641-0.649-2.02c-0.738-0.377-1.642-0.088-2.02,0.65l-1.387,2.702H9.374h-3.5L5.875,14.703
			L5.875,14.703z M10.042,21.738h3.53l-2.926,5.703L10.042,21.738z M6.285,35.939l-3.024-5.481l4.062-5.902l0.821,7.758
			L6.285,35.939z M40.276,37.631H11.725l-0.502-4.742l5.721-11.149h18.445l5.444,10.612L40.276,37.631z M46.047,35.939l-2.136-4.162
			l0.81-7.641l4.351,6.322L46.047,35.939z"/>
		<path d="M18.5,23.996c-0.276,0-0.5,0.224-0.5,0.5v10.75c0,0.275,0.224,0.5,0.5,0.5s0.5-0.225,0.5-0.5v-10.75
			C19,24.22,18.776,23.996,18.5,23.996z"/>
		<path d="M25.375,23.996c-0.276,0-0.5,0.224-0.5,0.5v10.75c0,0.275,0.224,0.5,0.5,0.5s0.5-0.225,0.5-0.5v-10.75
			C25.875,24.22,25.651,23.996,25.375,23.996z"/>
		<path d="M32.25,23.996c-0.275,0-0.5,0.224-0.5,0.5v10.75c0,0.275,0.225,0.5,0.5,0.5c0.276,0,0.5-0.225,0.5-0.5v-10.75
			C32.75,24.22,32.526,23.996,32.25,23.996z"/>
	</g>
</g>
</svg>